<svg xmlns="http://www.w3.org/2000/svg" xmlns:xlink="http://www.w3.org/1999/xlink" width="500" zoomAndPan="magnify" viewBox="0 0 375 374.999991" height="500" preserveAspectRatio="xMidYMid meet" version="1.0"><defs><g/><clipPath id="ab5984e33a"><path d="M 187 97.820312 L 250.527344 97.820312 L 250.527344 218.570312 L 187 218.570312 Z M 187 97.820312 " clip-rule="nonzero"/></clipPath><clipPath id="e88f5262ba"><path d="M 124.527344 97.820312 L 188 97.820312 L 188 218.570312 L 124.527344 218.570312 Z M 124.527344 97.820312 " clip-rule="nonzero"/></clipPath></defs><g clip-path="url(#ab5984e33a)"><path fill="#3871c1" d="M 187.507812 97.824219 L 187.507812 106.089844 C 190.304688 106.589844 197.597656 107.996094 206.765625 110.65625 C 216.203125 113.398438 229.410156 118 241.445312 124.914062 C 240.078125 131.511719 237.046875 143.703125 231.234375 157.199219 C 226.230469 168.808594 220.167969 179.105469 213.214844 187.804688 C 209.394531 192.578125 205.300781 196.878906 200.949219 200.679688 C 197.394531 203.785156 191.835938 201.191406 191.902344 196.464844 C 192.148438 179.28125 192.90625 159.078125 195.085938 156.636719 C 196.617188 154.921875 199.042969 155.117188 201.414062 155.976562 C 203.6875 156.808594 204.382812 159.683594 202.71875 161.449219 C 202.703125 161.464844 202.691406 161.480469 202.675781 161.496094 C 196.417969 168.136719 201.074219 176.203125 208.78125 175.273438 C 217.824219 174.183594 225.269531 164.855469 225.269531 152.007812 C 225.269531 139.15625 217.890625 128.742188 208.78125 128.742188 C 202.210938 128.742188 195.59375 133.289062 197.972656 142.183594 C 199.203125 146.789062 203.238281 148.910156 205.636719 151.136719 C 201.972656 150.652344 197.449219 150.449219 194.882812 151.816406 C 189.523438 154.671875 189.195312 190.074219 189.414062 209.222656 C 189.460938 213.164062 189.53125 216.417969 189.582031 218.554688 C 190.332031 218.144531 191.074219 217.726562 191.804688 217.296875 C 241.136719 188.433594 250.464844 120.863281 250.464844 120.863281 C 223.242188 103.292969 187.507812 97.824219 187.507812 97.824219 " fill-opacity="1" fill-rule="nonzero"/></g><g clip-path="url(#e88f5262ba)"><path fill="#80cc28" d="M 153.058594 153.667969 C 152.855469 155.769531 152.871094 157.792969 153.078125 159.714844 C 152.449219 157.460938 152.101562 154.996094 152.101562 152.371094 C 152.101562 140.796875 158.75 131.414062 166.953125 131.414062 C 169.355469 131.414062 171.765625 132.09375 173.636719 133.429688 C 172.777344 133.167969 171.886719 132.992188 170.988281 132.90625 C 162.269531 132.070312 154.242188 141.363281 153.058594 153.667969 Z M 124.550781 120.863281 C 124.550781 120.863281 133.882812 188.433594 183.214844 217.296875 C 183.484375 217.457031 183.761719 217.613281 184.035156 217.769531 C 184.5 218.035156 184.964844 218.296875 185.4375 218.554688 C 185.488281 216.417969 185.558594 213.164062 185.605469 209.222656 C 185.824219 190.074219 185.496094 154.671875 180.136719 151.816406 C 177.570312 150.449219 173.042969 150.652344 169.382812 151.136719 C 171.777344 148.910156 175.816406 146.789062 177.046875 142.183594 C 179.425781 133.289062 172.808594 128.742188 166.238281 128.742188 C 157.128906 128.742188 149.75 139.15625 149.75 152.007812 C 149.75 164.855469 157.195312 174.183594 166.238281 175.273438 C 173.945312 176.203125 178.597656 168.136719 172.34375 161.496094 C 172.328125 161.480469 172.3125 161.464844 172.296875 161.445312 C 170.636719 159.683594 171.328125 156.808594 173.605469 155.976562 C 175.976562 155.117188 178.402344 154.921875 179.929688 156.636719 C 182.113281 159.078125 182.871094 179.28125 183.117188 196.464844 C 183.183594 201.191406 177.621094 203.78125 174.0625 200.671875 C 169.660156 196.824219 165.515625 192.464844 161.652344 187.613281 C 154.683594 178.855469 148.613281 168.488281 143.617188 156.804688 C 137.882812 143.402344 134.914062 131.425781 133.566406 124.917969 C 145.605469 118 158.8125 113.398438 168.253906 110.65625 C 177.417969 108 184.710938 106.589844 187.507812 106.089844 L 187.507812 97.824219 C 187.507812 97.824219 151.777344 103.292969 124.550781 120.863281 " fill-opacity="1" fill-rule="nonzero"/></g><g fill="#044274" fill-opacity="1"><g transform="translate(69.222656, 255.735672)"><g><path d="M 11.0625 -9.671875 L 7.390625 -5.90625 L 7.390625 0 L 3.109375 0 L 3.109375 -23.09375 L 7.390625 -23.09375 L 7.390625 -11.25 L 18.8125 -23.09375 L 23.625 -23.09375 L 13.921875 -12.765625 L 24.21875 0 L 19.203125 0 Z M 11.0625 -9.671875 "/></g></g></g><g fill="#044274" fill-opacity="1"><g transform="translate(93.279601, 255.735672)"><g><path d="M 3.109375 -23.09375 L 7.390625 -23.09375 L 7.390625 0 L 3.109375 0 Z M 3.109375 -23.09375 "/></g></g></g><g fill="#044274" fill-opacity="1"><g transform="translate(103.806574, 255.735672)"><g><path d="M 3.109375 -23.09375 L 13.203125 -23.09375 C 15.660156 -23.09375 17.847656 -22.613281 19.765625 -21.65625 C 21.679688 -20.707031 23.164062 -19.359375 24.21875 -17.609375 C 25.28125 -15.859375 25.8125 -13.835938 25.8125 -11.546875 C 25.8125 -9.265625 25.28125 -7.25 24.21875 -5.5 C 23.164062 -3.75 21.679688 -2.394531 19.765625 -1.4375 C 17.847656 -0.476562 15.660156 0 13.203125 0 L 3.109375 0 Z M 13 -3.625 C 14.695312 -3.625 16.1875 -3.945312 17.46875 -4.59375 C 18.757812 -5.25 19.75 -6.175781 20.4375 -7.375 C 21.132812 -8.570312 21.484375 -9.960938 21.484375 -11.546875 C 21.484375 -13.128906 21.132812 -14.519531 20.4375 -15.71875 C 19.75 -16.914062 18.757812 -17.835938 17.46875 -18.484375 C 16.1875 -19.140625 14.695312 -19.46875 13 -19.46875 L 7.390625 -19.46875 L 7.390625 -3.625 Z M 13 -3.625 "/></g></g></g><g fill="#044274" fill-opacity="1"><g transform="translate(131.064522, 255.735672)"><g><path d="M 23.625 -23.09375 L 23.625 0 L 20.09375 0 L 7.359375 -15.640625 L 7.359375 0 L 3.109375 0 L 3.109375 -23.09375 L 6.640625 -23.09375 L 19.375 -7.453125 L 19.375 -23.09375 Z M 23.625 -23.09375 "/></g></g></g><g fill="#044274" fill-opacity="1"><g transform="translate(157.794462, 255.735672)"><g><path d="M 20.421875 -3.59375 L 20.421875 0 L 3.109375 0 L 3.109375 -23.09375 L 19.96875 -23.09375 L 19.96875 -19.5 L 7.390625 -19.5 L 7.390625 -13.5 L 18.546875 -13.5 L 18.546875 -9.96875 L 7.390625 -9.96875 L 7.390625 -3.59375 Z M 20.421875 -3.59375 "/></g></g></g><g fill="#044274" fill-opacity="1"><g transform="translate(179.904412, 255.735672)"><g><path d="M 13.0625 -8.15625 L 13.0625 0 L 8.78125 0 L 8.78125 -8.078125 L -0.296875 -23.09375 L 4.296875 -23.09375 L 11.0625 -11.84375 L 17.890625 -23.09375 L 22.109375 -23.09375 Z M 13.0625 -8.15625 "/></g></g></g><g fill="#044274" fill-opacity="1"><g transform="translate(201.717365, 255.735672)"><g/></g></g><g fill="#044274" fill-opacity="1"><g transform="translate(210.825351, 255.735672)"><g><path d="M 13.796875 0.328125 C 11.460938 0.328125 9.351562 -0.179688 7.46875 -1.203125 C 5.59375 -2.222656 4.117188 -3.632812 3.046875 -5.4375 C 1.984375 -7.25 1.453125 -9.285156 1.453125 -11.546875 C 1.453125 -13.816406 1.988281 -15.851562 3.0625 -17.65625 C 4.144531 -19.457031 5.625 -20.867188 7.5 -21.890625 C 9.382812 -22.921875 11.492188 -23.4375 13.828125 -23.4375 C 15.722656 -23.4375 17.445312 -23.101562 19 -22.4375 C 20.5625 -21.78125 21.882812 -20.820312 22.96875 -19.5625 L 20.203125 -16.96875 C 18.523438 -18.769531 16.46875 -19.671875 14.03125 -19.671875 C 12.445312 -19.671875 11.023438 -19.320312 9.765625 -18.625 C 8.515625 -17.9375 7.535156 -16.972656 6.828125 -15.734375 C 6.128906 -14.503906 5.78125 -13.109375 5.78125 -11.546875 C 5.78125 -9.984375 6.128906 -8.585938 6.828125 -7.359375 C 7.535156 -6.128906 8.515625 -5.164062 9.765625 -4.46875 C 11.023438 -3.78125 12.445312 -3.4375 14.03125 -3.4375 C 16.46875 -3.4375 18.523438 -4.347656 20.203125 -6.171875 L 22.96875 -3.53125 C 21.882812 -2.28125 20.554688 -1.320312 18.984375 -0.65625 C 17.410156 0 15.679688 0.328125 13.796875 0.328125 Z M 13.796875 0.328125 "/></g></g></g><g fill="#044274" fill-opacity="1"><g transform="translate(234.816297, 255.735672)"><g><path d="M 18.078125 -5.34375 L 6.53125 -5.34375 L 4.25 0 L -0.171875 0 L 10.234375 -23.09375 L 14.453125 -23.09375 L 24.875 0 L 20.390625 0 Z M 16.671875 -8.71875 L 12.3125 -18.8125 L 7.984375 -8.71875 Z M 16.671875 -8.71875 "/></g></g></g><g fill="#044274" fill-opacity="1"><g transform="translate(259.533245, 255.735672)"><g><path d="M 18.21875 0 L 13.5 -6.765625 C 13.300781 -6.742188 13.003906 -6.734375 12.609375 -6.734375 L 7.390625 -6.734375 L 7.390625 0 L 3.109375 0 L 3.109375 -23.09375 L 12.609375 -23.09375 C 14.609375 -23.09375 16.347656 -22.765625 17.828125 -22.109375 C 19.316406 -21.453125 20.457031 -20.503906 21.25 -19.265625 C 22.039062 -18.035156 22.4375 -16.578125 22.4375 -14.890625 C 22.4375 -13.148438 22.015625 -11.648438 21.171875 -10.390625 C 20.328125 -9.140625 19.109375 -8.207031 17.515625 -7.59375 L 22.84375 0 Z M 18.109375 -14.890625 C 18.109375 -16.359375 17.625 -17.488281 16.65625 -18.28125 C 15.695312 -19.070312 14.28125 -19.46875 12.40625 -19.46875 L 7.390625 -19.46875 L 7.390625 -10.265625 L 12.40625 -10.265625 C 14.28125 -10.265625 15.695312 -10.664062 16.65625 -11.46875 C 17.625 -12.269531 18.109375 -13.410156 18.109375 -14.890625 Z M 18.109375 -14.890625 "/></g></g></g><g fill="#044274" fill-opacity="1"><g transform="translate(283.656198, 255.735672)"><g><path d="M 20.421875 -3.59375 L 20.421875 0 L 3.109375 0 L 3.109375 -23.09375 L 19.96875 -23.09375 L 19.96875 -19.5 L 7.390625 -19.5 L 7.390625 -13.5 L 18.546875 -13.5 L 18.546875 -9.96875 L 7.390625 -9.96875 L 7.390625 -3.59375 Z M 20.421875 -3.59375 "/></g></g></g><g fill="#044274" fill-opacity="1"><g transform="translate(305.777332, 255.735672)"><g/></g></g><g fill="#737373" fill-opacity="1"><g transform="translate(121.906748, 274.485685)"><g><path d="M 10.421875 -8.96875 L 10.421875 0 L 8.9375 0 L 8.9375 -6.140625 L 6.203125 0 L 5.1875 0 L 2.4375 -6.140625 L 2.4375 0 L 0.96875 0 L 0.96875 -8.96875 L 2.5625 -8.96875 L 5.703125 -1.9375 L 8.84375 -8.96875 Z M 10.421875 -8.96875 "/></g></g></g><g fill="#737373" fill-opacity="1"><g transform="translate(135.599377, 274.485685)"><g><path d="M 5.921875 -8.984375 L 5.921875 -7.828125 L 2.4375 -7.828125 L 2.4375 -5.109375 L 5.53125 -5.109375 L 5.53125 -3.96875 L 2.4375 -3.96875 L 2.4375 -1.15625 L 5.921875 -1.15625 L 5.921875 0 L 0.96875 0 L 0.96875 -8.984375 Z M 5.921875 -8.984375 "/></g></g></g><g fill="#737373" fill-opacity="1"><g transform="translate(144.677142, 274.485685)"><g><path d="M 2.4375 -1.125 L 3.890625 -1.125 C 4.929688 -1.125 5.734375 -1.421875 6.296875 -2.015625 C 6.867188 -2.609375 7.15625 -3.421875 7.15625 -4.453125 C 7.15625 -5.492188 6.867188 -6.304688 6.296875 -6.890625 C 5.734375 -7.484375 4.929688 -7.78125 3.890625 -7.78125 L 2.4375 -7.78125 Z M 3.890625 -8.96875 C 5.335938 -8.96875 6.492188 -8.5625 7.359375 -7.75 C 8.222656 -6.9375 8.65625 -5.835938 8.65625 -4.453125 C 8.65625 -3.078125 8.222656 -1.988281 7.359375 -1.1875 C 6.492188 -0.394531 5.335938 0 3.890625 0 L 0.96875 0 L 0.96875 -8.96875 Z M 3.890625 -8.96875 "/></g></g></g><g fill="#737373" fill-opacity="1"><g transform="translate(156.139683, 274.485685)"><g><path d="M 0.96875 0 L 0.96875 -8.96875 L 2.4375 -8.96875 L 2.4375 0 Z M 0.96875 0 "/></g></g></g><g fill="#737373" fill-opacity="1"><g transform="translate(161.865863, 274.485685)"><g><path d="M 5.0625 0.078125 C 3.78125 0.078125 2.695312 -0.347656 1.8125 -1.203125 C 0.925781 -2.066406 0.484375 -3.160156 0.484375 -4.484375 C 0.484375 -5.816406 0.925781 -6.914062 1.8125 -7.78125 C 2.695312 -8.65625 3.78125 -9.09375 5.0625 -9.09375 C 6.007812 -9.09375 6.851562 -8.851562 7.59375 -8.375 C 8.34375 -7.90625 8.890625 -7.242188 9.234375 -6.390625 L 7.453125 -6.390625 C 6.972656 -7.296875 6.175781 -7.75 5.0625 -7.75 C 4.15625 -7.75 3.414062 -7.453125 2.84375 -6.859375 C 2.269531 -6.265625 1.984375 -5.476562 1.984375 -4.5 C 1.984375 -3.519531 2.269531 -2.734375 2.84375 -2.140625 C 3.414062 -1.546875 4.15625 -1.25 5.0625 -1.25 C 6.175781 -1.25 6.972656 -1.703125 7.453125 -2.609375 L 9.234375 -2.609375 C 8.890625 -1.742188 8.34375 -1.078125 7.59375 -0.609375 C 6.851562 -0.148438 6.007812 0.078125 5.0625 0.078125 Z M 5.0625 0.078125 "/></g></g></g><g fill="#737373" fill-opacity="1"><g transform="translate(174.153406, 274.485685)"><g><path d="M 7.015625 0 L 6.375 -1.828125 L 2.625 -1.828125 L 1.96875 0 L 0.4375 0 L 3.65625 -8.984375 L 5.359375 -8.984375 L 8.5625 0 Z M 3.015625 -2.984375 L 5.96875 -2.984375 L 4.5 -7.203125 Z M 3.015625 -2.984375 "/></g></g></g><g fill="#737373" fill-opacity="1"><g transform="translate(185.461261, 274.485685)"><g><path d="M 0.96875 -8.96875 L 2.4375 -8.96875 L 2.4375 -1.125 L 5.46875 -1.125 L 5.46875 0 L 0.96875 0 Z M 0.96875 -8.96875 "/></g></g></g><g fill="#737373" fill-opacity="1"><g transform="translate(193.507768, 274.485685)"><g/></g></g><g fill="#737373" fill-opacity="1"><g transform="translate(199.69802, 274.485685)"><g><path d="M 5.0625 0.078125 C 3.78125 0.078125 2.695312 -0.347656 1.8125 -1.203125 C 0.925781 -2.066406 0.484375 -3.160156 0.484375 -4.484375 C 0.484375 -5.816406 0.925781 -6.914062 1.8125 -7.78125 C 2.695312 -8.65625 3.78125 -9.09375 5.0625 -9.09375 C 6.007812 -9.09375 6.851562 -8.851562 7.59375 -8.375 C 8.34375 -7.90625 8.890625 -7.242188 9.234375 -6.390625 L 7.453125 -6.390625 C 6.972656 -7.296875 6.175781 -7.75 5.0625 -7.75 C 4.15625 -7.75 3.414062 -7.453125 2.84375 -6.859375 C 2.269531 -6.265625 1.984375 -5.476562 1.984375 -4.5 C 1.984375 -3.519531 2.269531 -2.734375 2.84375 -2.140625 C 3.414062 -1.546875 4.15625 -1.25 5.0625 -1.25 C 6.175781 -1.25 6.972656 -1.703125 7.453125 -2.609375 L 9.234375 -2.609375 C 8.890625 -1.742188 8.34375 -1.078125 7.59375 -0.609375 C 6.851562 -0.148438 6.007812 0.078125 5.0625 0.078125 Z M 5.0625 0.078125 "/></g></g></g><g fill="#737373" fill-opacity="1"><g transform="translate(211.985569, 274.485685)"><g><path d="M 0.96875 -8.96875 L 2.4375 -8.96875 L 2.4375 -1.125 L 5.46875 -1.125 L 5.46875 0 L 0.96875 0 Z M 0.96875 -8.96875 "/></g></g></g><g fill="#737373" fill-opacity="1"><g transform="translate(220.032069, 274.485685)"><g><path d="M 0.96875 0 L 0.96875 -8.96875 L 2.4375 -8.96875 L 2.4375 0 Z M 0.96875 0 "/></g></g></g><g fill="#737373" fill-opacity="1"><g transform="translate(225.758246, 274.485685)"><g><path d="M 6.859375 -8.984375 L 8.34375 -8.984375 L 8.34375 0 L 6.859375 0 L 2.4375 -6.703125 L 2.4375 0 L 0.96875 0 L 0.96875 -8.984375 L 2.4375 -8.984375 L 6.859375 -2.296875 Z M 6.859375 -8.984375 "/></g></g></g><g fill="#737373" fill-opacity="1"><g transform="translate(237.375475, 274.485685)"><g><path d="M 0.96875 0 L 0.96875 -8.96875 L 2.4375 -8.96875 L 2.4375 0 Z M 0.96875 0 "/></g></g></g><g fill="#737373" fill-opacity="1"><g transform="translate(243.101652, 274.485685)"><g><path d="M 5.0625 0.078125 C 3.78125 0.078125 2.695312 -0.347656 1.8125 -1.203125 C 0.925781 -2.066406 0.484375 -3.160156 0.484375 -4.484375 C 0.484375 -5.816406 0.925781 -6.914062 1.8125 -7.78125 C 2.695312 -8.65625 3.78125 -9.09375 5.0625 -9.09375 C 6.007812 -9.09375 6.851562 -8.851562 7.59375 -8.375 C 8.34375 -7.90625 8.890625 -7.242188 9.234375 -6.390625 L 7.453125 -6.390625 C 6.972656 -7.296875 6.175781 -7.75 5.0625 -7.75 C 4.15625 -7.75 3.414062 -7.453125 2.84375 -6.859375 C 2.269531 -6.265625 1.984375 -5.476562 1.984375 -4.5 C 1.984375 -3.519531 2.269531 -2.734375 2.84375 -2.140625 C 3.414062 -1.546875 4.15625 -1.25 5.0625 -1.25 C 6.175781 -1.25 6.972656 -1.703125 7.453125 -2.609375 L 9.234375 -2.609375 C 8.890625 -1.742188 8.34375 -1.078125 7.59375 -0.609375 C 6.851562 -0.148438 6.007812 0.078125 5.0625 0.078125 Z M 5.0625 0.078125 "/></g></g></g></svg>